<svg height="512pt" viewBox="0 -73 512.00143 512" width="512pt" xmlns="http://www.w3.org/2000/svg"><path d="m321.015625 102.523438 23.746094-82.460938c3.65625-12.691406 19.59375-16.804688 28.933593-7.464844l58.710938 58.710938c9.339844 9.34375 5.230469 25.277344-7.464844 28.933594l-82.457031 23.75c-13.109375 3.773437-25.246094-8.359376-21.46875-21.46875zm0 0" fill="#f7c67b"/><path d="m459.292969 139.585938c-14.410157-15.992188-34.386719-23.5625-54.070313-22.71875-5.890625.253906-11.335937-2.855469-14.457031-7.859376-2.707031-4.34375-5.941406-8.449218-9.71875-12.226562-15.699219-15.699219-37.109375-22.210938-57.546875-19.539062-6.875.898437-13.816406-1.070313-19.28125-5.339844-13.296875-10.398438-30.027344-16.601563-48.21875-16.601563-18.867188 0-36.171875 6.671875-49.699219 17.777344-5.085937 4.175781-11.648437 6.183594-18.207031 5.652344-19.992188-1.628907-40.539062 5.199219-55.832031 20.492187-4.746094 4.746094-8.671875 10-11.78125 15.585938-3.554688 6.378906-10.820313 9.722656-17.929688 8.039062-5.082031-1.203125-10.417969-1.75-15.917969-1.535156-30.519531 1.1875-55.359374 26.09375-56.464843 56.621094-1.210938 33.492187 25.585937 61.023437 58.808593 61.023437 22.808594 0 42.574219-12.988281 52.339844-31.960937 25.046875 17.839844 59.082032 17.425781 83.707032-1.242188 9.503906 4.089844 19.972656 6.367188 30.976562 6.367188 13.78125 0 26.722656-3.566406 37.976562-9.808594 15.246094 10.328125 33.71875 13.867188 51.175782 10.597656 3.339844 7.695313 8.136718 14.910156 14.429687 21.199219 27.476563 27.480469 72.441407 26.824219 99.085938-1.972656 23.945312-25.878907 24.230469-66.363281.625-92.550781zm0 0" fill="#7bd0a7"/><path d="m297.140625 178.332031c-65.601563-24.34375-98.734375-63.195312-112.175781-99.773437-18.988282-.707032-38.207032 6.167968-52.703125 20.664062-4.746094 4.746094-8.667969 10-11.78125 15.585938-3.554688 6.382812-10.820313 9.722656-17.929688 8.039062-5.082031-1.203125-10.417969-1.746094-15.914062-1.535156-30.523438 1.191406-55.363281 26.09375-56.464844 56.621094-1.210937 33.492187 25.582031 61.027344 58.804687 61.027344 22.8125 0 42.574219-12.988282 52.339844-31.964844 25.046875 17.839844 59.082032 17.425781 83.710938-1.242188 9.5 4.09375 19.96875 6.367188 30.972656 6.367188 13.78125 0 26.722656-3.566406 37.976562-9.808594 11.148438 7.550781 24.019532 11.457031 36.957032 11.742188 8.796875-10.398438 2.0625-22.417969-33.792969-35.722657zm0 0" fill="#68bf97"/><path d="m403.300781 358.058594h-294.597656c-29.082031 0-54.855469-18.730469-63.832031-46.390625l-36.28125-111.757813c-4.550782-14.019531 5.902344-28.402344 20.644531-28.402344h453.535156c14.742188 0 25.195313 14.382813 20.640625 28.402344l-36.277344 111.757813c-8.980468 27.660156-34.75 46.390625-63.832031 46.390625zm0 0" fill="#ddaf89"/><path d="m29.234375 171.507812c-14.742187 0-25.195313 14.382813-20.644531 28.402344l36.28125 111.757813c8.980468 27.660156 34.75 46.390625 63.832031 46.390625h127c-69.425781-35.867188-69.027344-147.890625-46.484375-186.550782zm0 0" fill="#c9a07d"/><path d="m482.769531 171.507812h-453.535156c-14.742187 0-25.195313 14.382813-20.644531 28.402344l3.804687 11.722656c7.636719 1.632813 14.96875 5.070313 21.324219 10.324219 18.425781 15.238281 45.082031 15.238281 63.507812 0 18.429688-15.234375 45.082032-15.234375 63.511719 0 18.425781 15.238281 45.082031 15.238281 63.507813 0 18.429687-15.234375 45.082031-15.234375 63.511718 0 18.425782 15.238281 45.082032 15.238281 63.507813 0 18.429687-15.234375 45.082031-15.234375 63.511719 0 18.425781 15.238281 45.082031 15.238281 63.507812 0 6.355469-5.253906 13.6875-8.691406 21.320313-10.324219l3.808593-11.722656c4.550782-14.019531-5.902343-28.402344-20.644531-28.402344zm0 0" fill="#f3e5b7"/><path d="m8.589844 199.910156 3.804687 11.722656c7.636719 1.632813 14.96875 5.070313 21.324219 10.324219 18.425781 15.238281 45.082031 15.238281 63.507812 0 18.429688-15.234375 45.082032-15.234375 63.511719 0 4.585938 3.796875 9.6875 6.644531 15.039063 8.546875.671875-24.234375 5.777344-45.851562 13.441406-58.996094h-159.984375c-14.742187 0-25.195313 14.382813-20.644531 28.402344zm0 0" fill="#e8d8a5"/><path d="m192.96875 314.265625c0-16.210937-16.503906-29.351563-36.859375-29.351563s-36.859375 13.140626-36.859375 29.351563 16.503906 29.351563 36.859375 29.351563 36.859375-13.140626 36.859375-29.351563zm0 0" fill="#fff"/><path d="m392.75 314.265625c0-16.210937-16.5-29.351563-36.855469-29.351563-20.359375 0-36.859375 13.140626-36.859375 29.351563s16.5 29.351563 36.859375 29.351563c20.355469 0 36.855469-13.140626 36.855469-29.351563zm0 0" fill="#fff"/><path d="m213.613281 88.921875-17.886719-62.117187c-3.65625-12.691407-19.59375-16.804688-28.933593-7.464844l-58.710938 58.710937c-9.339843 9.339844-5.226562 25.277344 7.464844 28.933594l61.480469 17.707031c7.609375-15.796875 20.601562-28.5 36.585937-35.769531zm0 0" fill="#f7c67b"/><g fill="#ebb460"><path d="m148.132812 89.675781c0 4.085938-3.308593 7.394531-7.394531 7.394531-4.082031 0-7.390625-3.308593-7.390625-7.394531 0-4.082031 3.308594-7.390625 7.390625-7.390625 4.085938 0 7.394531 3.308594 7.394531 7.390625zm0 0"/><path d="m184.308594 44.050781c0 4.085938-3.308594 7.394531-7.394532 7.394531-4.082031 0-7.390624-3.308593-7.390624-7.394531 0-4.082031 3.308593-7.390625 7.390624-7.390625 4.085938 0 7.394532 3.308594 7.394532 7.390625zm0 0"/><path d="m196.464844 87.066406c0 4.082032-3.308594 7.390625-7.390625 7.390625s-7.394531-3.308593-7.394531-7.390625c0-4.082031 3.3125-7.394531 7.394531-7.394531s7.390625 3.3125 7.390625 7.394531zm0 0"/><path d="m359.902344 58.835938c0 4.085937-3.308594 7.394531-7.394532 7.394531-4.082031 0-7.390624-3.308594-7.390624-7.394531 0-4.082032 3.308593-7.390626 7.390624-7.390626 4.085938 0 7.394532 3.308594 7.394532 7.390626zm0 0"/><path d="m413.203125 82.285156c0 4.082032-3.308594 7.390625-7.390625 7.390625s-7.394531-3.308593-7.394531-7.390625c0-4.082031 3.3125-7.394531 7.394531-7.394531s7.390625 3.3125 7.390625 7.394531zm0 0"/></g><path d="m331.394531 143.46875c-1.917969 0-3.839843-.730469-5.300781-2.195312-2.929688-2.929688-2.929688-7.679688 0-10.605469 7.519531-7.519531 17.515625-11.664063 28.148438-11.664063 10.636718 0 20.632812 4.144532 28.152343 11.664063 2.929688 2.929687 2.929688 7.675781 0 10.605469-2.929687 2.925781-7.679687 2.929687-10.605469 0-4.6875-4.6875-10.917968-7.269532-17.546874-7.269532-6.625 0-12.855469 2.582032-17.542969 7.269532-1.464844 1.460937-3.386719 2.195312-5.304688 2.195312zm0 0" fill="#68bf97"/><path d="m273.945312 117.140625c-2.363281 0-4.691406-1.117187-6.148437-3.199219-5.773437-8.246094-17.183594-10.261718-25.433594-4.484375-3.390625 2.378907-8.066406 1.554688-10.441406-1.839843-2.378906-3.394532-1.550781-8.070313 1.839844-10.445313 15.023437-10.519531 35.800781-6.855469 46.320312 8.167969 2.375 3.390625 1.550781 8.066406-1.839843 10.441406-1.308594.917969-2.8125 1.359375-4.296876 1.359375zm0 0" fill="#68bf97"/><path d="m150.074219 154.96875c-1.917969 0-3.839844-.730469-5.304688-2.195312-2.992187-2.992188-6.96875-4.640626-11.203125-4.640626s-8.210937 1.644532-11.207031 4.640626c-2.925781 2.929687-7.675781 2.929687-10.605469 0-2.925781-2.929688-2.925781-7.675782 0-10.605469 5.828125-5.824219 13.574219-9.035157 21.8125-9.035157 8.238282 0 15.984375 3.210938 21.8125 9.035157 2.925782 2.929687 2.925782 7.679687-.003906 10.605469-1.460938 1.464843-3.382812 2.195312-5.300781 2.195312zm0 0" fill="#7bd0a7"/><path d="m256 318.808594c9.300781 0 18.144531-4.027344 24.265625-11.050782 2.71875-3.121093 2.394531-7.859374-.726563-10.582031-3.125-2.722656-7.859374-2.394531-10.582031.726563-3.269531 3.753906-7.992187 5.90625-12.953125 5.90625-4.964844 0-9.6875-2.152344-12.957031-5.90625-2.722656-3.121094-7.457031-3.445313-10.582031-.726563-3.121094 2.722657-3.445313 7.460938-.726563 10.582031 6.121094 7.023438 14.964844 11.050782 24.261719 11.050782zm68.367188-36.480469c0-5.539063 4.507812-10.046875 10.042968-10.046875 5.539063 0 10.046875 4.507812 10.046875 10.046875 0 4.140625 3.355469 7.496094 7.5 7.496094 4.140625 0 7.496094-3.355469 7.496094-7.496094 0-13.8125-11.234375-25.046875-25.042969-25.046875s-25.042968 11.234375-25.042968 25.046875c0 4.140625 3.359374 7.496094 7.5 7.496094 4.140624 0 7.5-3.355469 7.5-7.496094zm182.027343-106.285156c-5.558593-7.648438-14.167969-12.035157-23.625-12.035157h-1.539062c-3.1875-10.929687-8.769531-21.015624-16.363281-29.445312-12.289063-13.632812-28.792969-22.222656-46.621094-24.585938l8.769531-2.527343c8.539063-2.457031 14.964844-9.0625 17.183594-17.667969 2.21875-8.601562-.207031-17.488281-6.492188-23.773438l-2.773437-2.773437c-2.925782-2.929687-7.675782-2.929687-10.605469 0-2.925781 2.929687-2.925781 7.675781 0 10.605469l2.773437 2.773437c2.527344 2.527344 3.464844 5.960938 2.574219 9.421875-.894531 3.460938-3.375 6.011719-6.808593 7l-28.3125 8.15625c-2.457032-3.453125-5.199219-6.707031-8.203126-9.710937-13.078124-13.078125-30.003906-20.761719-47.984374-22.113281l13.601562-47.226563c.988281-3.433594 3.542969-5.917969 7-6.808594 3.460938-.894531 6.894531.042969 9.421875 2.570313l30.9375 30.9375c2.925781 2.929687 7.675781 2.925781 10.605469 0 2.929687-2.929688 2.929687-7.679688 0-10.605469l-30.9375-30.9375c-6.28125-6.28125-15.167969-8.710937-23.773438-6.488281-8.605468 2.222656-15.207031 8.644531-17.667968 17.183594l-14.921876 51.804687c-.035156.003906-.070312.007813-.105468.011719-4.792969.628906-9.785156-.761719-13.6875-3.8125-15.222656-11.902344-33.496094-18.191406-52.839844-18.191406-15.34375 0-30.050781 3.976562-43.085938 11.582031l-9.980468-34.652344c-2.460938-8.539063-9.066406-14.964844-17.667969-17.183594-8.605469-2.222656-17.492187.207031-23.777344 6.488281l-58.710937 58.710938c-6.28125 6.28125-8.707032 15.171875-6.488282 23.773438 2.078126 8.058593 7.847657 14.363281 15.589844 17.152343-2.078125 1.78125-4.855468 2.523438-7.597656 1.875-5.84375-1.382812-11.878906-1.96875-17.9375-1.730469-29.761719 1.160157-54.855469 22.054688-61.808594 50.566407-7.570312 1.203125-14.304687 5.296875-18.925781 11.65625-5.5585938 7.648437-7.074219 17.191406-4.152344 26.183593l36.277344 111.757813c10.015625 30.847656 38.535156 51.574219 70.96875 51.574219h4.609375c4.140625 0 7.5-3.355469 7.5-7.5 0-4.144532-3.359375-7.5-7.5-7.5h-4.609375c-25.914063 0-48.699219-16.558594-56.699219-41.203125l-27.539062-84.832031c1.554687.976562 3.054687 2.042968 4.472656 3.214843 21.167969 17.503907 51.898438 17.503907 73.066406 0 15.628906-12.921875 38.320313-12.921875 53.953125 0 21.167969 17.503907 51.898438 17.503907 73.066407 0 15.632812-12.921875 38.320312-12.921875 53.953124 0 10.582032 8.753907 23.558594 13.128907 36.53125 13.128907 12.976563 0 25.949219-4.375 36.535157-13.128907 15.632812-12.921875 38.320312-12.921875 53.953125 0 21.167968 17.503907 51.898437 17.503907 73.066406 0 1.417969-1.171875 2.917969-2.238281 4.476562-3.214843l-27.539062 84.832031c-8.003906 24.644531-30.789062 41.203125-56.699219 41.203125h-255.203125c-4.140625 0-7.5 3.355468-7.5 7.5 0 4.144531 3.359375 7.5 7.5 7.5h255.203125c32.433594 0 60.949219-20.726563 70.964844-51.574219l36.28125-111.757813c2.917969-8.992187 1.402344-18.535156-4.152344-26.183593zm-395.582031-83.269531c-.890625-3.457032.046875-6.894532 2.574219-9.417969l58.710937-58.710938c1.898438-1.902343 4.3125-2.902343 6.863282-2.902343.84375 0 1.699218.109374 2.558593.332031 3.457031.890625 6.011719 3.375 7 6.808593l16.167969 56.144532c-13.050781 7.230468-23.9375 17.890625-31.425781 30.773437l-47.195313-13.589843c-.019531-.007813-.039062-.011719-.058594-.019532l-8.386718-2.414062c-3.433594-.988282-5.914063-3.542969-6.808594-7.003906zm-23.886719 36.035156c4.699219-.183594 9.378907.269531 13.898438 1.335937 10.25 2.429688 21.023437-2.378906 26.210937-11.6875.054688-.101562.121094-.207031.179688-.308593l47.738281 13.75c.6875.195312 1.386719.292968 2.074219.292968 2.820312 0 5.480468-1.597656 6.757812-4.246094 6.847656-14.214843 18.542969-25.648437 32.9375-32.195312 3.382813-1.539062 5.128906-5.328125 4.101563-8.902344l-3.597657-12.484375c11.53125-7.574219 24.832032-11.5625 38.777344-11.5625 15.960938 0 31.039063 5.191407 43.597656 15.011719 7.050782 5.511719 16.117188 8.015625 24.871094 6.867188 1.316406-.171876 2.625-.292969 3.933594-.378907h.019531c.023438 0 .042969-.003906.066407-.003906 17.625-1.164063 34.65625 5.195313 47.253906 17.792969 3.292968 3.292968 6.207031 6.953125 8.65625 10.886718.25.402344.511718.789063.78125 1.167969.027344.039063.050781.082031.078125.117188 4.710937 6.601562 12.332031 10.4375 20.28125 10.101562 18.308593-.800781 35.878906 6.59375 48.183593 20.242188 5.097657 5.65625 9.0625 12.253906 11.71875 19.402343h-425.207031c6.613281-20.03125 25.058594-34.355468 46.6875-35.199218zm409.351563 68.789062-2.539063 7.820313c-7.363281 2.191406-14.292969 5.851562-20.230469 10.761719-15.632812 12.921874-38.320312 12.921874-53.953124 0-21.167969-17.503907-51.898438-17.503907-73.066407 0-15.632812 12.921874-38.320312 12.921874-53.953125 0-21.167968-17.503907-51.898437-17.503907-73.066406 0-15.632812 12.921874-38.320312 12.921874-53.953125 0-21.167969-17.503907-51.898437-17.503907-73.066406 0-15.632813 12.921874-38.320313 12.921874-53.953125 0-5.9375-4.910157-12.867188-8.570313-20.230469-10.761719l-2.542969-7.824219c-1.417968-4.371094-.683594-9.011719 2.019532-12.734375 2.703124-3.71875 6.890624-5.851563 11.492187-5.851563h1.539063.011718.019532 444.523437.042969.039062 7.359375c4.601563 0 8.789063 2.132813 11.492188 5.851563 2.699219 3.722656 3.4375 8.363281 2.015625 12.738281zm-328.730469 84.730469c0-5.539063 4.503906-10.046875 10.042969-10.046875 5.539062 0 10.042968 4.507812 10.042968 10.046875 0 4.140625 3.359376 7.496094 7.5 7.496094 4.144532 0 7.5-3.355469 7.5-7.496094 0-13.8125-11.234374-25.046875-25.042968-25.046875s-25.042969 11.234375-25.042969 25.046875c0 4.140625 3.359375 7.496094 7.5 7.496094s7.5-3.355469 7.5-7.496094zm0 0"/></svg>